<mxfile host="app.diagrams.net" agent="Mozilla/5.0 (Windows NT 10.0; Win64; x64) AppleWebKit/537.36 (KHTML, like Gecko) Chrome/131.0.0.0 Safari/537.36" version="25.0.3">
  <diagram name="Page-1" id="wZQ-osu-UTrjxJQ7WKQO">
    <mxGraphModel dx="2049" dy="1226" grid="1" gridSize="10" guides="1" tooltips="1" connect="1" arrows="1" fold="1" page="1" pageScale="1" pageWidth="827" pageHeight="1169" math="0" shadow="0">
      <root>
        <mxCell id="0" />
        <mxCell id="1" parent="0" />
        <mxCell id="uns0xi-RTQflqHLzz6Vr-13" value="Code Ennemi" style="rounded=1;whiteSpace=wrap;html=1;verticalAlign=top;fillColor=#dae8fc;strokeColor=#6c8ebf;" parent="1" vertex="1">
          <mxGeometry x="80" y="160" width="230" height="330" as="geometry" />
        </mxCell>
        <mxCell id="uns0xi-RTQflqHLzz6Vr-1" value="ajout d&#39;un pointeur sur une structure de données dans la liste &quot;update_list&quot;" style="rounded=1;whiteSpace=wrap;html=1;" parent="1" vertex="1">
          <mxGeometry x="100" y="390" width="180" height="60" as="geometry" />
        </mxCell>
        <mxCell id="uns0xi-RTQflqHLzz6Vr-2" value="0x0003" style="rounded=0;whiteSpace=wrap;html=1;" parent="1" vertex="1">
          <mxGeometry x="150" y="565" width="80" height="20" as="geometry" />
        </mxCell>
        <mxCell id="uns0xi-RTQflqHLzz6Vr-3" value="0x0123" style="rounded=0;whiteSpace=wrap;html=1;" parent="1" vertex="1">
          <mxGeometry x="150" y="585" width="80" height="20" as="geometry" />
        </mxCell>
        <mxCell id="uns0xi-RTQflqHLzz6Vr-4" value="0x04" style="rounded=0;whiteSpace=wrap;html=1;" parent="1" vertex="1">
          <mxGeometry x="150" y="605" width="80" height="20" as="geometry" />
        </mxCell>
        <mxCell id="uns0xi-RTQflqHLzz6Vr-5" value="0x0789" style="rounded=0;whiteSpace=wrap;html=1;" parent="1" vertex="1">
          <mxGeometry x="150" y="625" width="80" height="20" as="geometry" />
        </mxCell>
        <mxCell id="uns0xi-RTQflqHLzz6Vr-6" value="update_list" style="text;html=1;align=center;verticalAlign=middle;whiteSpace=wrap;rounded=0;" parent="1" vertex="1">
          <mxGeometry x="70" y="590" width="60" height="30" as="geometry" />
        </mxCell>
        <mxCell id="uns0xi-RTQflqHLzz6Vr-8" value="offset de fin du tableau (vers le premier octet libre)" style="text;html=1;align=left;verticalAlign=middle;whiteSpace=wrap;rounded=0;" parent="1" vertex="1">
          <mxGeometry x="240" y="560" width="270" height="30" as="geometry" />
        </mxCell>
        <mxCell id="uns0xi-RTQflqHLzz6Vr-9" value="position x,y dans la tilemap (libre:2bits x:5bits, y:9bits)" style="text;html=1;align=left;verticalAlign=middle;whiteSpace=wrap;rounded=0;" parent="1" vertex="1">
          <mxGeometry x="240" y="580" width="320" height="30" as="geometry" />
        </mxCell>
        <mxCell id="uns0xi-RTQflqHLzz6Vr-10" value="page de la structure de données des tiles" style="text;html=1;align=left;verticalAlign=middle;whiteSpace=wrap;rounded=0;" parent="1" vertex="1">
          <mxGeometry x="240" y="600" width="410" height="30" as="geometry" />
        </mxCell>
        <mxCell id="uns0xi-RTQflqHLzz6Vr-11" value="pointeur vers la structure de données des tiles" style="text;html=1;align=left;verticalAlign=middle;whiteSpace=wrap;rounded=0;" parent="1" vertex="1">
          <mxGeometry x="240" y="620" width="410" height="30" as="geometry" />
        </mxCell>
        <mxCell id="uns0xi-RTQflqHLzz6Vr-12" value="" style="endArrow=none;html=1;rounded=0;" parent="1" edge="1">
          <mxGeometry width="50" height="50" relative="1" as="geometry">
            <mxPoint x="140" y="645" as="sourcePoint" />
            <mxPoint x="140" y="565" as="targetPoint" />
          </mxGeometry>
        </mxCell>
        <mxCell id="uns0xi-RTQflqHLzz6Vr-14" value="destruction de l&#39;ennemi" style="rounded=1;whiteSpace=wrap;html=1;" parent="1" vertex="1">
          <mxGeometry x="100" y="210" width="180" height="60" as="geometry" />
        </mxCell>
        <mxCell id="uns0xi-RTQflqHLzz6Vr-15" value="" style="endArrow=classic;html=1;rounded=0;exitX=0.5;exitY=1;exitDx=0;exitDy=0;entryX=0.5;entryY=0;entryDx=0;entryDy=0;" parent="1" source="uns0xi-RTQflqHLzz6Vr-22" target="uns0xi-RTQflqHLzz6Vr-1" edge="1">
          <mxGeometry width="50" height="50" relative="1" as="geometry">
            <mxPoint x="390" y="530" as="sourcePoint" />
            <mxPoint x="440" y="480" as="targetPoint" />
          </mxGeometry>
        </mxCell>
        <mxCell id="uns0xi-RTQflqHLzz6Vr-16" value="" style="endArrow=classic;html=1;rounded=0;exitX=0.5;exitY=1;exitDx=0;exitDy=0;dashed=1;" parent="1" source="uns0xi-RTQflqHLzz6Vr-1" edge="1">
          <mxGeometry width="50" height="50" relative="1" as="geometry">
            <mxPoint x="390" y="530" as="sourcePoint" />
            <mxPoint x="190" y="560" as="targetPoint" />
          </mxGeometry>
        </mxCell>
        <mxCell id="uns0xi-RTQflqHLzz6Vr-17" value="0x08" style="rounded=0;whiteSpace=wrap;html=1;" parent="1" vertex="1">
          <mxGeometry x="530" y="320" width="80" height="20" as="geometry" />
        </mxCell>
        <mxCell id="uns0xi-RTQflqHLzz6Vr-18" value="0x00" style="rounded=0;whiteSpace=wrap;html=1;" parent="1" vertex="1">
          <mxGeometry x="530" y="340" width="80" height="20" as="geometry" />
        </mxCell>
        <mxCell id="uns0xi-RTQflqHLzz6Vr-19" value="0x01AB" style="rounded=0;whiteSpace=wrap;html=1;" parent="1" vertex="1">
          <mxGeometry x="530" y="360" width="80" height="20" as="geometry" />
        </mxCell>
        <mxCell id="uns0xi-RTQflqHLzz6Vr-20" value="0x01" style="rounded=0;whiteSpace=wrap;html=1;" parent="1" vertex="1">
          <mxGeometry x="530" y="380" width="80" height="20" as="geometry" />
        </mxCell>
        <mxCell id="uns0xi-RTQflqHLzz6Vr-21" value="" style="endArrow=none;html=1;rounded=0;" parent="1" edge="1">
          <mxGeometry width="50" height="50" relative="1" as="geometry">
            <mxPoint x="520" y="440" as="sourcePoint" />
            <mxPoint x="520" y="320" as="targetPoint" />
          </mxGeometry>
        </mxCell>
        <mxCell id="uns0xi-RTQflqHLzz6Vr-22" value="récupération de la position&lt;div&gt;de l&#39;ennemi dans la tilemap&lt;/div&gt;" style="rounded=1;whiteSpace=wrap;html=1;" parent="1" vertex="1">
          <mxGeometry x="100" y="300" width="180" height="60" as="geometry" />
        </mxCell>
        <mxCell id="uns0xi-RTQflqHLzz6Vr-23" value="" style="endArrow=classic;html=1;rounded=0;exitX=0.5;exitY=1;exitDx=0;exitDy=0;entryX=0.5;entryY=0;entryDx=0;entryDy=0;" parent="1" edge="1">
          <mxGeometry width="50" height="50" relative="1" as="geometry">
            <mxPoint x="189.8" y="270" as="sourcePoint" />
            <mxPoint x="189.8" y="300" as="targetPoint" />
          </mxGeometry>
        </mxCell>
        <mxCell id="uns0xi-RTQflqHLzz6Vr-24" value="données des tiles pour l&#39;image &quot;detruit&quot;" style="text;html=1;align=center;verticalAlign=middle;whiteSpace=wrap;rounded=0;" parent="1" vertex="1">
          <mxGeometry x="420" y="330" width="90" height="60" as="geometry" />
        </mxCell>
        <mxCell id="uns0xi-RTQflqHLzz6Vr-25" value="position x,y issue de la wave, transposée en tile pos&lt;div&gt;(ref. haut gauche)&lt;/div&gt;" style="text;html=1;align=center;verticalAlign=middle;whiteSpace=wrap;rounded=0;" parent="1" vertex="1">
          <mxGeometry x="340" y="210" width="160" height="50" as="geometry" />
        </mxCell>
        <mxCell id="uns0xi-RTQflqHLzz6Vr-26" value="" style="endArrow=classic;html=1;rounded=0;exitX=0.5;exitY=1;exitDx=0;exitDy=0;dashed=1;entryX=1;entryY=0.5;entryDx=0;entryDy=0;" parent="1" source="uns0xi-RTQflqHLzz6Vr-25" target="uns0xi-RTQflqHLzz6Vr-22" edge="1">
          <mxGeometry width="50" height="50" relative="1" as="geometry">
            <mxPoint x="359.31" y="260" as="sourcePoint" />
            <mxPoint x="359.31" y="360" as="targetPoint" />
            <Array as="points">
              <mxPoint x="360" y="330" />
            </Array>
          </mxGeometry>
        </mxCell>
        <mxCell id="uns0xi-RTQflqHLzz6Vr-27" value="" style="endArrow=classic;html=1;rounded=0;exitX=0;exitY=0.5;exitDx=0;exitDy=0;dashed=1;entryX=1;entryY=0.5;entryDx=0;entryDy=0;" parent="1" source="uns0xi-RTQflqHLzz6Vr-24" target="uns0xi-RTQflqHLzz6Vr-1" edge="1">
          <mxGeometry width="50" height="50" relative="1" as="geometry">
            <mxPoint x="450" y="290" as="sourcePoint" />
            <mxPoint x="290" y="340" as="targetPoint" />
            <Array as="points">
              <mxPoint x="360" y="420" />
            </Array>
          </mxGeometry>
        </mxCell>
        <mxCell id="uns0xi-RTQflqHLzz6Vr-28" value="nb de tiles" style="text;html=1;align=left;verticalAlign=middle;whiteSpace=wrap;rounded=0;" parent="1" vertex="1">
          <mxGeometry x="620" y="315" width="270" height="30" as="geometry" />
        </mxCell>
        <mxCell id="uns0xi-RTQflqHLzz6Vr-29" value="offset dans la tilemap" style="text;html=1;align=left;verticalAlign=middle;whiteSpace=wrap;rounded=0;" parent="1" vertex="1">
          <mxGeometry x="620" y="335" width="270" height="30" as="geometry" />
        </mxCell>
        <mxCell id="uns0xi-RTQflqHLzz6Vr-30" value="tile id dans le tileset" style="text;html=1;align=left;verticalAlign=middle;whiteSpace=wrap;rounded=0;" parent="1" vertex="1">
          <mxGeometry x="620" y="355" width="270" height="30" as="geometry" />
        </mxCell>
        <mxCell id="uns0xi-RTQflqHLzz6Vr-31" value="Peut fonctionner pour l&#39;image de destruction, mais aussi pour n&#39;importe quelle image d&#39;animation.&lt;div&gt;Il suffit que l&#39;objet utilise son propre algo d&#39;animation.&lt;/div&gt;&lt;div&gt;&lt;br&gt;&lt;/div&gt;&lt;div&gt;Permet d&#39;animer les tiles même en bordure d&#39;écran (affichage partiel sur le cotés ou en entrée ou sortie d&#39;écran)&lt;/div&gt;" style="rounded=0;whiteSpace=wrap;html=1;fillColor=#fff2cc;strokeColor=#d6b656;" parent="1" vertex="1">
          <mxGeometry x="480" y="30" width="300" height="120" as="geometry" />
        </mxCell>
        <mxCell id="uns0xi-RTQflqHLzz6Vr-32" value="offset dans la tilemap" style="text;html=1;align=left;verticalAlign=middle;whiteSpace=wrap;rounded=0;" parent="1" vertex="1">
          <mxGeometry x="620" y="375" width="270" height="30" as="geometry" />
        </mxCell>
        <mxCell id="uns0xi-RTQflqHLzz6Vr-33" value="tile id dans le tileset" style="text;html=1;align=left;verticalAlign=middle;whiteSpace=wrap;rounded=0;" parent="1" vertex="1">
          <mxGeometry x="620" y="395" width="270" height="30" as="geometry" />
        </mxCell>
        <mxCell id="uns0xi-RTQflqHLzz6Vr-34" value="0x01AC" style="rounded=0;whiteSpace=wrap;html=1;" parent="1" vertex="1">
          <mxGeometry x="530" y="400" width="80" height="20" as="geometry" />
        </mxCell>
        <mxCell id="uns0xi-RTQflqHLzz6Vr-35" value="..." style="rounded=0;whiteSpace=wrap;html=1;strokeColor=none;fillColor=none;" parent="1" vertex="1">
          <mxGeometry x="530" y="420" width="80" height="20" as="geometry" />
        </mxCell>
        <mxCell id="KTYUDWkKEU7xfHyUNPRZ-1" value="Boucle principale" style="rounded=1;whiteSpace=wrap;html=1;verticalAlign=top;fillColor=#ffe6cc;strokeColor=#d79b00;" vertex="1" parent="1">
          <mxGeometry x="80" y="720" width="560" height="560" as="geometry" />
        </mxCell>
        <mxCell id="KTYUDWkKEU7xfHyUNPRZ-2" value="Mise à jour du scroll" style="rounded=1;whiteSpace=wrap;html=1;" vertex="1" parent="1">
          <mxGeometry x="130" y="1180" width="120" height="60" as="geometry" />
        </mxCell>
        <mxCell id="KTYUDWkKEU7xfHyUNPRZ-8" style="edgeStyle=orthogonalEdgeStyle;rounded=0;orthogonalLoop=1;jettySize=auto;html=1;exitX=0.5;exitY=1;exitDx=0;exitDy=0;" edge="1" parent="1" source="KTYUDWkKEU7xfHyUNPRZ-3" target="KTYUDWkKEU7xfHyUNPRZ-6">
          <mxGeometry relative="1" as="geometry" />
        </mxCell>
        <mxCell id="KTYUDWkKEU7xfHyUNPRZ-3" value="Lecture de l&#39;update_list" style="rounded=1;whiteSpace=wrap;html=1;" vertex="1" parent="1">
          <mxGeometry x="130" y="790" width="120" height="60" as="geometry" />
        </mxCell>
        <mxCell id="KTYUDWkKEU7xfHyUNPRZ-4" value="" style="endArrow=classic;html=1;rounded=0;exitX=0.5;exitY=0;exitDx=0;exitDy=0;dashed=1;entryX=0.5;entryY=1;entryDx=0;entryDy=0;" edge="1" parent="1" source="KTYUDWkKEU7xfHyUNPRZ-3" target="uns0xi-RTQflqHLzz6Vr-5">
          <mxGeometry width="50" height="50" relative="1" as="geometry">
            <mxPoint x="200" y="460" as="sourcePoint" />
            <mxPoint x="200" y="570" as="targetPoint" />
            <Array as="points" />
          </mxGeometry>
        </mxCell>
        <mxCell id="KTYUDWkKEU7xfHyUNPRZ-12" value="&#xa;&lt;span style=&quot;color: rgb(0, 0, 0); font-family: Helvetica; font-size: 12px; font-style: normal; font-variant-ligatures: normal; font-variant-caps: normal; font-weight: 400; letter-spacing: normal; orphans: 2; text-align: center; text-indent: 0px; text-transform: none; widows: 2; word-spacing: 0px; -webkit-text-stroke-width: 0px; white-space: normal; text-decoration-thickness: initial; text-decoration-style: initial; text-decoration-color: initial; float: none; display: inline !important;&quot;&gt;tile partiellement ou entierement en zone visible ?&lt;/span&gt;&#xa;&#xa;" style="edgeStyle=orthogonalEdgeStyle;rounded=0;orthogonalLoop=1;jettySize=auto;html=1;exitX=1;exitY=0.5;exitDx=0;exitDy=0;entryX=0.5;entryY=0;entryDx=0;entryDy=0;labelBackgroundColor=none;" edge="1" parent="1" source="KTYUDWkKEU7xfHyUNPRZ-5" target="KTYUDWkKEU7xfHyUNPRZ-11">
          <mxGeometry x="0.5714" y="40" relative="1" as="geometry">
            <mxPoint as="offset" />
          </mxGeometry>
        </mxCell>
        <mxCell id="KTYUDWkKEU7xfHyUNPRZ-5" value="mise à jour de la référence du tile dans la tilemap en x,y" style="rounded=1;whiteSpace=wrap;html=1;" vertex="1" parent="1">
          <mxGeometry x="300" y="880" width="120" height="60" as="geometry" />
        </mxCell>
        <mxCell id="KTYUDWkKEU7xfHyUNPRZ-7" style="edgeStyle=orthogonalEdgeStyle;rounded=0;orthogonalLoop=1;jettySize=auto;html=1;exitX=1;exitY=0.5;exitDx=0;exitDy=0;" edge="1" parent="1" source="KTYUDWkKEU7xfHyUNPRZ-6" target="KTYUDWkKEU7xfHyUNPRZ-5">
          <mxGeometry relative="1" as="geometry" />
        </mxCell>
        <mxCell id="KTYUDWkKEU7xfHyUNPRZ-17" style="edgeStyle=orthogonalEdgeStyle;rounded=0;orthogonalLoop=1;jettySize=auto;html=1;exitX=0.5;exitY=1;exitDx=0;exitDy=0;entryX=0.5;entryY=0;entryDx=0;entryDy=0;" edge="1" parent="1" source="KTYUDWkKEU7xfHyUNPRZ-6" target="KTYUDWkKEU7xfHyUNPRZ-19">
          <mxGeometry relative="1" as="geometry" />
        </mxCell>
        <mxCell id="KTYUDWkKEU7xfHyUNPRZ-6" value="Pour chaque tile" style="rounded=1;whiteSpace=wrap;html=1;" vertex="1" parent="1">
          <mxGeometry x="130" y="880" width="120" height="60" as="geometry" />
        </mxCell>
        <mxCell id="KTYUDWkKEU7xfHyUNPRZ-9" value="Mise à jour des pixels data dans le buffer de scroll" style="rounded=1;whiteSpace=wrap;html=1;" vertex="1" parent="1">
          <mxGeometry x="300" y="970" width="120" height="60" as="geometry" />
        </mxCell>
        <mxCell id="KTYUDWkKEU7xfHyUNPRZ-13" style="edgeStyle=orthogonalEdgeStyle;rounded=0;orthogonalLoop=1;jettySize=auto;html=1;exitX=0;exitY=0.5;exitDx=0;exitDy=0;" edge="1" parent="1" source="KTYUDWkKEU7xfHyUNPRZ-11" target="KTYUDWkKEU7xfHyUNPRZ-9">
          <mxGeometry relative="1" as="geometry" />
        </mxCell>
        <mxCell id="KTYUDWkKEU7xfHyUNPRZ-14" value="Oui" style="edgeLabel;html=1;align=center;verticalAlign=middle;resizable=0;points=[];labelBackgroundColor=none;" vertex="1" connectable="0" parent="KTYUDWkKEU7xfHyUNPRZ-13">
          <mxGeometry x="0.3" relative="1" as="geometry">
            <mxPoint x="19" y="-10" as="offset" />
          </mxGeometry>
        </mxCell>
        <mxCell id="KTYUDWkKEU7xfHyUNPRZ-15" style="edgeStyle=orthogonalEdgeStyle;rounded=0;orthogonalLoop=1;jettySize=auto;html=1;exitX=0.5;exitY=1;exitDx=0;exitDy=0;entryX=0.75;entryY=1;entryDx=0;entryDy=0;" edge="1" parent="1" source="KTYUDWkKEU7xfHyUNPRZ-11" target="KTYUDWkKEU7xfHyUNPRZ-6">
          <mxGeometry relative="1" as="geometry" />
        </mxCell>
        <mxCell id="KTYUDWkKEU7xfHyUNPRZ-18" value="Non" style="edgeLabel;html=1;align=center;verticalAlign=middle;resizable=0;points=[];labelBackgroundColor=none;" vertex="1" connectable="0" parent="KTYUDWkKEU7xfHyUNPRZ-15">
          <mxGeometry x="0.3333" y="1" relative="1" as="geometry">
            <mxPoint x="280" y="-11" as="offset" />
          </mxGeometry>
        </mxCell>
        <mxCell id="KTYUDWkKEU7xfHyUNPRZ-11" value="" style="rhombus;whiteSpace=wrap;html=1;" vertex="1" parent="1">
          <mxGeometry x="480" y="970" width="60" height="60" as="geometry" />
        </mxCell>
        <mxCell id="KTYUDWkKEU7xfHyUNPRZ-16" value="" style="rounded=0;whiteSpace=wrap;html=1;fillColor=none;dashed=1;" vertex="1" parent="1">
          <mxGeometry x="270" y="860" width="330" height="220" as="geometry" />
        </mxCell>
        <mxCell id="KTYUDWkKEU7xfHyUNPRZ-20" style="edgeStyle=orthogonalEdgeStyle;rounded=0;orthogonalLoop=1;jettySize=auto;html=1;exitX=0.5;exitY=1;exitDx=0;exitDy=0;entryX=0.5;entryY=0;entryDx=0;entryDy=0;" edge="1" parent="1" source="KTYUDWkKEU7xfHyUNPRZ-19" target="KTYUDWkKEU7xfHyUNPRZ-2">
          <mxGeometry relative="1" as="geometry" />
        </mxCell>
        <mxCell id="KTYUDWkKEU7xfHyUNPRZ-19" value="réinit de update_list&lt;div&gt;avec 0x0000 comme offset de fin&lt;/div&gt;" style="rounded=1;whiteSpace=wrap;html=1;" vertex="1" parent="1">
          <mxGeometry x="130" y="1090" width="120" height="60" as="geometry" />
        </mxCell>
      </root>
    </mxGraphModel>
  </diagram>
</mxfile>
